<svg xmlns="http://www.w3.org/2000/svg" viewBox="0 0 200 200"><path fill="#fbfbfb" stroke="#fbfbfb" d="M89.844 47.394C81.722 50.295 76.51 54.831 52.5 79.895c-29.591 30.891-31 32.983-31 46.034 0 19.287 13.327 32.622 32.5 32.52 11.891-.063 15.274-2.057 31.93-18.819l13.429-13.517 13.571 13.817c14.926 15.197 19.098 17.899 29.025 18.8 25 2.267 43.338-24.509 32.207-47.027-5.069-10.254-55.453-60.79-63.45-63.64-6.593-2.35-15.373-2.632-20.868-.669" fill-rule="evenodd"/><path fill="#14d3ac" stroke="#14d3ac" d="M90.951 47.362c-7.78 2.098-11.117 4.973-37.979 32.724-29.459 30.433-31.231 32.971-31.303 44.822-.15 24.528 24.41 40.712 45.802 30.181 4.844-2.385 9.03-5.951 19.049-16.227l12.842-13.17 13.304 13.703c16.017 16.496 20.329 19.034 32.334 19.034 12.55 0 22.694-6.305 28.845-17.929 3.773-7.132 3.875-21.52.205-28.978-2.723-5.535-50.759-56.033-57.147-60.077-7.779-4.924-17.288-6.42-25.952-4.083" fill-rule="evenodd"/><path fill="#347cf4" stroke="#347cf4" d="M93.223 47.033c-7.99 1.629-13.981 5.937-26.891 19.338L53.859 79.317l8.313 8.591c43.699 45.167 63.544 64.401 69.328 67.193 21.976 10.611 47.468-7.461 45.237-32.07-1.078-11.88-2.41-13.641-36.982-48.875-26.387-26.892-31.899-30.105-46.532-27.123" fill-rule="evenodd"/><path fill="#0454fb" stroke="#0454fb" d="M88.591 48.573c-5.57 2.041-9.212 5.071-22.567 18.775L54.21 79.47l22.112 22.515C88.484 114.368 98.943 124.5 99.564 124.5c.621 0 11.07-10.159 23.22-22.577l22.089-22.576-13.686-13.625C114.922 49.53 110.594 46.984 99.5 47.08c-3.85.034-8.759.705-10.909 1.493" fill-rule="evenodd"/></svg>
